/* XPM */
static const char * const  back_xpm[] = {
"32 32 121 2",
"  	c None",
". 	c #06101C",
"+ 	c #0E5A7A",
"@ 	c #D5DEEA",
"# 	c #9EBACE",
"$ 	c #0A8EB2",
"% 	c #7296B2",
"& 	c #2BBED1",
"* 	c #1E4662",
"= 	c #6E8EA8",
"- 	c #12B6D2",
"; 	c #6E8AA6",
"> 	c #062636",
", 	c #5296B6",
"' 	c #769AB6",
") 	c #12AACA",
"! 	c #167EA6",
"~ 	c #0A3E5E",
"{ 	c #7EAEC6",
"] 	c #3A5E7E",
"^ 	c #92D2E6",
"/ 	c #FEFEFE",
"( 	c #369EC2",
"_ 	c #0EA2C6",
": 	c #4EBED6",
"< 	c #5EB6D2",
"[ 	c #D2E2F2",
"} 	c #2A526E",
"| 	c #126A92",
"1 	c #A6C6DA",
"2 	c #72BAD2",
"3 	c #FAF6FA",
"4 	c #2EBAD2",
"5 	c #0F3A56",
"6 	c #22CEE2",
"7 	c #ABDEEA",
"8 	c #1A92B2",
"9 	c #0E9ABF",
"0 	c #72C2D6",
"a 	c #D2EEFA",
"b 	c #26AACA",
"c 	c #0C3650",
"d 	c #CEDEEE",
"e 	c #4ADEEA",
"f 	c #527A9A",
"g 	c #061626",
"h 	c #0E4A6E",
"i 	c #28B6CC",
"j 	c #8ED2E6",
"k 	c #328AAE",
"l 	c #F2F6FA",
"m 	c #42C6D6",
"n 	c #0E7296",
"o 	c #32CEDE",
"p 	c #0A2A3E",
"q 	c #56AAC6",
"r 	c #0F96BC",
"s 	c #C2EEF6",
"t 	c #061E2E",
"u 	c #0E4E6E",
"v 	c #D8F2F8",
"w 	c #12668A",
"x 	c #1A425E",
"y 	c #168EB2",
"z 	c #24CAE0",
"A 	c #76CAE2",
"B 	c #128EB2",
"C 	c #B2DEEA",
"D 	c #0E8AB2",
"E 	c #365676",
"F 	c #22BACE",
"G 	c #E6F6FA",
"H 	c #36D8E4",
"I 	c #2692B6",
"J 	c #82CADE",
"K 	c #06526E",
"L 	c #1E4A66",
"M 	c #12A2CA",
"N 	c #0E3E5E",
"O 	c #3AB2CE",
"P 	c #DEEBF5",
"Q 	c #2AC6DA",
"R 	c #229AB6",
"S 	c #32AECA",
"T 	c #0E5272",
"U 	c #16BAD6",
"V 	c #0E2E46",
"W 	c #127A9E",
"X 	c #B4E4F2",
"Y 	c #6E96B2",
"Z 	c #82D2E6",
"` 	c #3ABAD2",
" .	c #42A6CA",
"..	c #6ABAD6",
"+.	c #DEE2EA",
"@.	c #1AA2C6",
"#.	c #4EC6DA",
"$.	c #8EDAE6",
"%.	c #124261",
"&.	c #275577",
"*.	c #1696BA",
"=.	c #0F5673",
"-.	c #16B2CA",
";.	c #32C2D2",
">.	c #0E5E80",
",.	c #12AED1",
"'.	c #0A9EC2",
").	c #1E82A6",
"!.	c #061E32",
"~.	c #19B5D3",
"{.	c #DBF6FE",
"].	c #BAE6EE",
"^.	c #16A6C6",
"/.	c #1292B2",
"(.	c #1A96B6",
"_.	c #061A2A",
":.	c #0A2239",
"<.	c #10567A",
"[.	c #FAFAFE",
"}.	c #0E769E",
"|.	c #7ACEE2",
"                                                                ",
"                                                                ",
"                                                                ",
"                                                                ",
"                                  5                             ",
"                                c 5                             ",
"                              5 * N                             ",
"                            &.] E %.                            ",
"                          x % ' ] %.                            ",
"                        L % [ # &.N                             ",
"                      } ; @ P # + ~                             ",
"                    * ; @ / C { ! V V V V V V V V V V           ",
"                  x = @ / P |.q b $ $ $ $ $ $ $ $ $ V           ",
"                } % +.3 v $.` ` b ( 2 7 G [./ [.{., V           ",
"              } = d l P ^ m ) ^.@.S A X v {.{.s ^ , V           ",
"            c f 1 a 7 Z #.,.'.'.9 ^.: Z 7 ].X j < k V           ",
"            . <.I i o 6 ~.M 9 r r 9 @.O 0 J J .. .).V           ",
"              > K $ ~.6 6 ,._ M /.r /./.y 8 (.8 *.! V           ",
"                :.=.D & H 6 ~.,.,.-.& ;.& 4 F -.U B V           ",
"                  g + 9 Q e 6 ) /.r W w | | | w >.T V           ",
"                    t =.8 i H i n <.c :.p > > p p :.V           ",
"                      > T B 4 R >.~                             ",
"                        !.+ }.n <.N                             ",
"                          _.+ | u %.                            ",
"                            > ~ h N                             ",
"                              g c ~                             ",
"                                . 5                             ",
"                                  g                             ",
"                                                                ",
"                                                                ",
"                                                                ",
"                                                                "};
