/* XPM */
static const char * const  find_xpm[] = {
"32 32 119 2",
"  	c None",
". 	c #868686",
"+ 	c #020202",
"@ 	c #969696",
"# 	c #5A5A5A",
"$ 	c #323231",
"% 	c #7E7E7F",
"& 	c #9A9A9A",
"* 	c #8E8E8E",
"= 	c #636363",
"- 	c #161616",
"; 	c #3E3E3E",
"> 	c #767676",
", 	c #525252",
"' 	c #9EA0A0",
") 	c #CDDADD",
"! 	c #D1E2E7",
"~ 	c #C9D5D5",
"{ 	c #A7A7A7",
"] 	c #4A4A4A",
"^ 	c #7A7A7A",
"/ 	c #5E5E5E",
"( 	c #B4BABB",
"_ 	c #DAE6E6",
": 	c #E3EEF1",
"< 	c #DEEEEE",
"[ 	c #E6F4F7",
"} 	c #DAFAFA",
"| 	c #D3F7FA",
"1 	c #D4F2F6",
"2 	c #D2EEF2",
"3 	c #E8FAFA",
"4 	c #D6DADA",
"5 	c #929292",
"6 	c #8A8A8A",
"7 	c #424242",
"8 	c #565654",
"9 	c #E2F6FA",
"0 	c #DDF6FA",
"a 	c #C9EFF3",
"b 	c #BEEEF3",
"c 	c #B1E6EE",
"d 	c #B2E2EA",
"e 	c #E1EAEE",
"f 	c #727272",
"g 	c #6B6B6B",
"h 	c #B0B6BA",
"i 	c #EEFCFB",
"j 	c #CEF2F2",
"k 	c #BDEAF1",
"l 	c #A3DEE6",
"m 	c #99D6E1",
"n 	c #99DEE9",
"o 	c #C2ECF2",
"p 	c #2E2E2E",
"q 	c #828282",
"r 	c #D6E2E6",
"s 	c #EAF6FA",
"t 	c #98DAE2",
"u 	c #86D3DE",
"v 	c #91D5DE",
"w 	c #DEFAFA",
"x 	c #C2C2C2",
"y 	c #4E4E4D",
"z 	c #464646",
"A 	c #FEFEFE",
"B 	c #BCE6ED",
"C 	c #AAE6EE",
"D 	c #7ECBD6",
"E 	c #77CAD6",
"F 	c #C2F2F8",
"G 	c #060606",
"H 	c #3A3A3A",
"I 	c #DCF2F3",
"J 	c #B2EAF2",
"K 	c #6FC6CF",
"L 	c #A5E3EC",
"M 	c #CAE2E2",
"N 	c #101010",
"O 	c #363636",
"P 	c #C6E6EE",
"Q 	c #8EDBE6",
"R 	c #77D2DF",
"S 	c #6AC2CF",
"T 	c #5EBECB",
"U 	c #82D6E2",
"V 	c #76CEDA",
"W 	c #57B6C1",
"X 	c #62BEC6",
"Y 	c #9EDDE5",
"Z 	c #0A0A0A",
"` 	c #CAEAF2",
" .	c #89DAE2",
"..	c #63CAD7",
"+.	c #4EBAC2",
"@.	c #52B2BA",
"#.	c #52C2CE",
"$.	c #4CB5BF",
"%.	c #44A5AE",
"&.	c #AEDEE6",
"*.	c #62CEDA",
"=.	c #49AAB3",
"-.	c #4AA6B2",
";.	c #5EB6C2",
">.	c #7ED6DE",
",.	c #4EC6D2",
"'.	c #3F9EA6",
").	c #53AEB7",
"!.	c #D2EAEE",
"~.	c #6AC6D2",
"{.	c #58BAC8",
"].	c #82CED6",
"^.	c #0EFEFA",
"/.	c #C6E2EA",
"(.	c #0AE2DE",
"_.	c #E2E2E2",
":.	c #D2D2D2",
"<.	c #06AEB2",
"[.	c #EAEAEA",
"              . + + + + + + .                         @ #       ",
"          + + $ # % & & * = - + +                     # ;     > ",
"        + , % ' ) ) ) ! ) ~ ~ { ] +                         ^ / ",
"      + , ( _ : < [ } | 1 2 | 3 4 > +               5 6 >     7 ",
"    + 8 ( _ 9 3 0 | 2 a b c d b 2 e / +           ' @ % f g     ",
"  + , h _ 3 i 3 9 j j k c l m n o 1 : p +       @ 5 > g = # ,   ",
"  + q r s i i i 3 1 a k c t m u v c w x +       6 q = # , y z   ",
". p ' < s i i A 3 1 a B C n v D E v F r G .     > f # y ] 7 H   ",
"+ y ~ : 0 9 3 0 I 2 o J C t u E K K L M y N       8 , ] 7 O     ",
"+ % r i | j I I 1 P B L n Q R S T S n B & G         ] 7 H       ",
"+ & e 3 2 k a a k k L n Q U V T W X Y b x Z                     ",
"+ & _ 0 ` k o J c C Y Q  .R ..+.@.W t k 4 Z                     ",
"+ * r < P d J C L t Q U R ..#.$.%.@.U c { Z                     ",
"+ y ~ j &.m n n n  . .R *.#.$.=.-.;.n P 8 Z                     ",
". - ( 2 &.v u  . .>.V ..,.$.=.'.).E J r + .                     ",
"  + * !.k t D D E ~.T +.$.=.'.'.{.Q 0 5 +                       ",
"  + ] ( 2 b v ].~.{.@.=.%.'.@.W Q F [ p .                       ",
"    + ^ x 2 &.v ].S ;.).=.{.E  .b : # + +                       ",
"      + > h I b l t u D E v c } : 8 + % ^.+                     ",
"        + H 6 h M /.c C l /._ 6 p + ] (.(._.+                   ",
"          + + + , & x :.{ 8 + + q G <.<., 6 [.+                 ",
"              . + + + + + + q       + $ ] , 6 [.+               ",
"      @ #                             + $ ; , 6 [.+             ",
"      # ;     >                         + O 7 , 6 [.+           ",
"            ^ / 7                         + O ; , 6 [.+         ",
"    5 6 >     7                             + O ; 8 6 [.+       ",
"  ' @ % f g                                   + $ ; 8 6 [.+     ",
"@ 5 > g = # ,   @ #                             + $ 7 8 6 _.+   ",
"6 q = # , y z   / ;                               + $ 7 8 6 N   ",
"> f # y ] 7 H                                       + $ 7 ] N   ",
"  8 , ] 7 O                                           + Z Z     ",
"    ] 7 H                                                       "};
