/* XPM */
static const char * const  forward_xpm[] = {
"32 32 121 2",
"  	c None",
". 	c #020203",
"+ 	c #0E3A5A",
"@ 	c #C6DAE2",
"# 	c #126E94",
"$ 	c #9ECEE2",
"% 	c #7EB2CA",
"& 	c #29BAD2",
"* 	c #0AA0C2",
"= 	c #06121A",
"- 	c #20769C",
"; 	c #46B4D2",
"> 	c #1E627A",
", 	c #6EBAD2",
"' 	c #F2F6FA",
") 	c #569ABA",
"! 	c #3CDAE6",
"~ 	c #3AB6D2",
"{ 	c #022A46",
"] 	c #127EA2",
"^ 	c #0E5674",
"/ 	c #86B6CA",
"( 	c #50BCD6",
"_ 	c #0296BE",
": 	c #2EB0CE",
"< 	c #3A6A7E",
"[ 	c #A2CEE2",
"} 	c #0EAACA",
"| 	c #22CEE2",
"1 	c #061A26",
"2 	c #E6F2FA",
"3 	c #2286AA",
"4 	c #82BEDA",
"5 	c #064A66",
"6 	c #0D9AC1",
"7 	c #72B6D6",
"8 	c #2A728E",
"9 	c #C6E2EE",
"0 	c #96C2D2",
"a 	c #040E14",
"b 	c #4AD6E6",
"c 	c #B2D2E2",
"d 	c #66BED6",
"e 	c #108AAC",
"f 	c #42CEE2",
"g 	c #021E3E",
"h 	c #7EC2D6",
"i 	c #C6EAF6",
"j 	c #1A4A6A",
"k 	c #0E8EB4",
"l 	c #1FB5CD",
"m 	c #AFDAE7",
"n 	c #2ECAE2",
"o 	c #327E9E",
"p 	c #2E627A",
"q 	c #2EBCCE",
"r 	c #0A4E6A",
"s 	c #B6D6E2",
"t 	c #1EA6C8",
"u 	c #5ED2E2",
"v 	c #4ADEEA",
"w 	c #0A2E3E",
"x 	c #CEEAF6",
"y 	c #13B5CF",
"z 	c #7ECAE2",
"A 	c #178FB4",
"B 	c #B6E2EE",
"C 	c #0E2630",
"D 	c #2094B6",
"E 	c #020A0E",
"F 	c #9ED2E6",
"G 	c #0E92B7",
"H 	c #166A8F",
"I 	c #6ECADE",
"J 	c #39BBD5",
"K 	c #0E5E7E",
"L 	c #104764",
"M 	c #1A9ABA",
"N 	c #D2EEF2",
"O 	c #FAFAFE",
"P 	c #022646",
"Q 	c #22627E",
"R 	c #05222E",
"S 	c #0E3652",
"T 	c #1AAECA",
"U 	c #347088",
"V 	c #0E4160",
"W 	c #82CFE3",
"X 	c #36C2DA",
"Y 	c #9CDAE8",
"Z 	c #D8EEF5",
"` 	c #12A2BE",
" .	c #0A94BC",
"..	c #96CADE",
"+.	c #32C2D6",
"@.	c #0E96BE",
"#.	c #BDDEED",
"$.	c #021620",
"%.	c #164666",
"&.	c #1AB6D6",
"*.	c #022240",
"=.	c #86B2CA",
"-.	c #42B4D0",
";.	c #36B2CE",
">.	c #426A7E",
",.	c #2ACEE2",
"'.	c #061621",
").	c #12A4CA",
"!.	c #CEE2EE",
"~.	c #168AAE",
"{.	c #52E2EA",
"].	c #E6F6FA",
"^.	c #0C526E",
"/.	c #FEFEFE",
"(.	c #051E2A",
"_.	c #D2F2FE",
":.	c #DAF2FA",
"<.	c #BEE2F2",
"[.	c #0FAECD",
"}.	c #B2DEEE",
"|.	c #7ACEE2",
"                                                                ",
"                                                                ",
"                                                                ",
"                                                                ",
"                              S                                 ",
"                              S E                               ",
"                              V Q C                             ",
"                              %.) p R                           ",
"                              j % 7 U a                         ",
"                              j / x c 8 $.                      ",
"                              j =.#.!.s < R                     ",
"          . { *.*.g g g g { P V % ..m /.[ < $.                  ",
"          . G k G G G G k G k G 0 I I Z /.c 8 a                 ",
"          . G B :./././././.2 #.m t : |.Z O @ U (.              ",
"          . k <.m N 2 2 x }.F z J _ 6 : W x ' $ >.C             ",
"          . G <.h W Y Y W ( -.-.* _ G 6 ~ |.}.:.4 > .           ",
"          . G #., ;.-.( J [.).t G k  . .; u {.J A ^..           ",
"          . k i d M k e k G 6 6 k G ).[.f b & k 5 1             ",
"          . G N |.&.l & q l y y [.).y | ! q ~.^.(.              ",
"          . G - H > H H # # ] G @.[.| b & A K a                 ",
"          . R $.$.$.= '.1 '.w K * ,.! & A 5 =                   ",
"                              V ` n X ~.r (.                    ",
"                              L A t A K =                       ",
"                              L o 3 ^ E                         ",
"                              L - r (.                          ",
"                              V ^.(.                            ",
"                              S E                               ",
"                              +                                 ",
"                                                                ",
"                                                                ",
"                                                                ",
"                                                                "};
