/* XPM */
static const char * const  gohome_xpm[] = {
"32 32 118 2",
"  	c None",
". 	c #020202",
"+ 	c #AEAEAE",
"@ 	c #222222",
"# 	c #9E4206",
"$ 	c #7A7A7A",
"% 	c #BEBEBE",
"& 	c #D2D2D2",
"* 	c #424242",
"= 	c #9E9E9E",
"- 	c #521202",
"; 	c #E2E2E2",
"> 	c #9A3E06",
", 	c #862E02",
"' 	c #D28236",
") 	c #E6E6E6",
"! 	c #6E6E6E",
"~ 	c #92562E",
"{ 	c #6E1E02",
"] 	c #929292",
"^ 	c #F2F2F2",
"/ 	c #A65E32",
"( 	c #4A4A4A",
"_ 	c #4E0E02",
": 	c #824646",
"< 	c #6A2E32",
"[ 	c #AA764E",
"} 	c #E2B28A",
"| 	c #AAAAAA",
"1 	c #E6BE9E",
"2 	c #565656",
"3 	c #CACACA",
"4 	c #C29E82",
"5 	c #9A5E3E",
"6 	c #8E8E8E",
"7 	c #FAFAFA",
"8 	c #C2620A",
"9 	c #626262",
"0 	c #F2DABA",
"a 	c #DABA9E",
"b 	c #323232",
"c 	c #CE721A",
"d 	c #161616",
"e 	c #AE927E",
"f 	c #661A02",
"g 	c #5E5E5E",
"h 	c #36362E",
"i 	c #E6D6C6",
"j 	c #BABABA",
"k 	c #965632",
"l 	c #E2CAB6",
"m 	c #925E66",
"n 	c #D29A6A",
"o 	c #B6724A",
"p 	c #B2520A",
"q 	c #828282",
"r 	c #BE865E",
"s 	c #7A2A02",
"t 	c #621602",
"u 	c #E6C2A6",
"v 	c #E6D2C2",
"w 	c #F6E6D2",
"x 	c #5A5A5A",
"y 	c #D28E4E",
"z 	c #DEAA7A",
"A 	c #B65606",
"B 	c #923A02",
"C 	c #CE823E",
"D 	c #C6660A",
"E 	c #525252",
"F 	c #CEAA96",
"G 	c #EED2BE",
"H 	c #E6CEBE",
"I 	c #EADACA",
"J 	c #8A3A1E",
"K 	c #DADADA",
"L 	c #B2B2B2",
"M 	c #9A9A9A",
"N 	c #F2E6DE",
"O 	c #CECECE",
"P 	c #BE661E",
"Q 	c #3A3A3A",
"R 	c #727272",
"S 	c #CE8A4A",
"T 	c #BE5A0A",
"U 	c #CA6A0E",
"V 	c #7E7E7E",
"W 	c #969696",
"X 	c #E2BA96",
"Y 	c #7E320E",
"Z 	c #464646",
"` 	c #762E12",
" .	c #CE925E",
"..	c #CA9E7A",
"+.	c #DA9E6E",
"@.	c #FEFEFE",
"#.	c #DEDEDE",
"$.	c #767676",
"%.	c #BA5A06",
"&.	c #EEDED6",
"*.	c #666666",
"=.	c #A2A2A2",
"-.	c #B25612",
";.	c #868686",
">.	c #561202",
",.	c #C6620A",
"'.	c #9A623E",
").	c #D29E6E",
"!.	c #621A02",
"~.	c #EADECE",
"{.	c #CA660A",
"].	c #D28A4A",
"^.	c #BA5A0A",
"/.	c #CE721E",
"(.	c #C6660E",
"_.	c #923A06",
":.	c #CA6A12",
"<.	c #E2CABA",
"                              . .                               ",
"                            . 2 2 .                             ",
"            x b .         . 2 & | 2 .                           ",
"            2 b .       . 2 K 3 % | 2 .                         ",
"            2 b .     . 2 #.3 L = M ] * .                       ",
"            2 b .   . 2 K 3 L ] 6 ;.V $ * .                     ",
"            2 b . . 2 #.3 L Q Q Q Q $ R ! * .                   ",
"            2 b . 2 K 3 R h g g g g Q E ! *.* .                 ",
"            2 . 2 & | ! Q g W W W W g h E 9 9 * .               ",
"            . 2 #.+ R Q g W % % % % W 9 Q E *.9 * .             ",
"          . 2 O + R Q 9 W % ; ; ; ; % W 9 Q E g 2 b .           ",
"        . 2 #.+ R Q x W % ; ^ ^ ^ ^ ; % W g Q E x x b .         ",
"      . 2 O + R Q g W % #.^ 7 @.@.@.^ #.% W g Q E 2 2 b .       ",
"    . 2 & =.R h E 6 % ; ^ @.@.@.@.@.@.^ ; % W E b E x x b .     ",
"  . 2 & + R h 2 6 % #.^ @.@.@.@.@.@.@.@.^ ; 3 ] 2 b E 2 E b .   ",
". b % = R @ Z ! j ; ^ @.@.@.@.@.@.@.@.@.@.^ K L R Z b ( E 2 b . ",
"  . 6 x d . x W O ^ @.@.0 [ '.k ` - w @.@.@.; O W x . d Z b .   ",
"    . .   . R + ; @.@.@.[ e I <...Y _ 7 @.@.) 3 + R .   . .     ",
"          . $ + ; @.@.4 5 N v a y o { 4 @.@.) O + $..           ",
"          . $.+ #.@.@.~ &.G X n C -., _ @.@.; O L $ .           ",
"          . $ L ; @.@.m I u +.C (.A B - @.@.; 3 + $..           ",
"          . $.+ ; @.@.m i 1 y c D %.> _ @.@.) O + $ .           ",
"          . $.+ ; @.@.m H } S :.(.T > >.@.@.) O + $..           ",
"          . $ + ; @.@.: H z c c D %.# _ @.@.; O + $ .           ",
"          . $ + ; @.@.: l n /.{.,.T # - @.@.; O + $..           ",
"          . $.+ ; @.@.: F S (.{.,.%.> _ @.@.) O + $ .           ",
"          . $ + ; @.@.< r P 8 D 8 T # >.@.@.; O + $..           ",
"          . $.+ ; @.@.< / p %.T %.p _._ @.@.) O + $ .           ",
"          . $ + ; @.@.< J _.> > > B s >.@.@.; O + $..           ",
"          . x q M j j b - !.!.f !.t >.b j j | M q x .           ",
"            . . . . . . . . . . . . . . . . . . . . .           ",
"                                                                "};
