/* XPM */
static const char * const  images_display_xpm[] = {
"32 32 65 1",
" 	c None",
".	c #020204",
"+	c #234D3A",
"@	c #3D8327",
"#	c #68A362",
"$	c #E23E1E",
"%	c #C22C29",
"&	c #6CB464",
"*	c #9E1F23",
"=	c #D63E2E",
"-	c #39A7D3",
";	c #9EC692",
">	c #A2DE96",
",	c #774D4A",
"'	c #EB8C7B",
")	c #87111E",
"!	c #2E9A46",
"~	c #C1EDAD",
"{	c #4B9CBE",
"]	c #2A3450",
"^	c #356F47",
"/	c #D1CFCE",
"(	c #7E7E7E",
"_	c #4282B1",
":	c #3A9E29",
"<	c #D8E1D9",
"[	c #FEB9A6",
"}	c #2B2B29",
"|	c #8F8F90",
"1	c #6ABAE6",
"2	c #2D4A80",
"3	c #AE5D4E",
"4	c #E2422E",
"5	c #4F4F51",
"6	c #696869",
"7	c #F1F6F2",
"8	c #AFAAAB",
"9	c #CAC5C3",
"0	c #E45940",
"a	c #3E6F9B",
"b	c #41A828",
"c	c #18181E",
"d	c #326042",
"e	c #7ABE52",
"f	c #5E7A9E",
"g	c #CE4236",
"h	c #53B1D5",
"i	c #304576",
"j	c #92CEE6",
"k	c #E86A51",
"l	c #E8E7E4",
"m	c #F2AE8E",
"n	c #9C9C9B",
"o	c #D06455",
"p	c #767676",
"q	c #509555",
"r	c #A6F2F6",
"s	c #3D6191",
"t	c #83D562",
"u	c #6E90AE",
"v	c #B8B8B7",
"w	c #AEDAF2",
"x	c #52BA2C",
"y	c #9A625E",
"z	c #3E3E42",
"                                ",
"            ....   ...          ",
"   ......  .hh__. .;#q.         ",
"  .[[[k%%..r1-hhf.~~>t&.        ",
"  .[ll'=%*rjwh--s2t<~e#d+.c     ",
" .%ml/'4%)hjwh{_2]~<~q!^+5z.    ",
" .4'm'0=*)h11-_2ii;~>q!^+55.    ",
" .0''0=%)*{h--ai]f;;&!!^+5z.    ",
" .4kk0g*)ohh--a]in#ex:@+z66.    ",
" .4400=**mjh--aia|q#b:^+d66.    ",
" .o4$$**'9l---22n|#xb@dz666.    ",
" .'0$$*)9ll--_isn##x:@+d6p6.    ",
" .l30$**</7h{s2un|qq@d+6666.    ",
" .l'00**<7lj{sannn(qd+66(p6.    ",
" .l9ok*'<7ll{2nn8nn^sp66p66.    ",
" .l/0k*9l7lluavvv8n(p(6ppp6.    ",
" .l9ok%<7ll<989vv8nn||(ppp6.    ",
" .l'0o'<7ll//9v9vv8nn.......    ",
" .l0o0<l7ll</99vvv8nn.7ee@..    ",
" .vy30lll<//9vvvv8v8n.~xx@..    ",
" .(,,3vvvvvv9vv8nn|||.~xx@..    ",
" .c]zz56pnvvvn|(6..ccc~xx@..... ",
"  .,,3vvvvv9vvnn|.7~~~7xxb7~~b. ",
"   ccc}]zzzz]}}}}.~xxxxxxxxxx@. ",
"                 .~xxxxxxxxxx@. ",
"                 .ttttxxxxttt@. ",
"                 .....~xx@..... ",
"                     .~xx@.     ",
"                     .~xx@.     ",
"                     .xtt@.     ",
"                     ......     ",
"                                "};
