/* XPM */
static const char * const  lock_xpm[] = {
"32 32 121 2",
"  	c None",
". 	c #020202",
"+ 	c #4B471C",
"@ 	c #8D823E",
"# 	c #B6B26A",
"$ 	c #E6E2B6",
"% 	c #3A3618",
"& 	c #D7D3A1",
"* 	c #7B7331",
"= 	c #393212",
"- 	c #828282",
"; 	c #AEAEAE",
"> 	c #5E5E5E",
", 	c #1A1A0A",
"' 	c #A69E6A",
") 	c #C6C292",
"! 	c #675F2D",
"~ 	c #FAFAEE",
"{ 	c #E2DEAE",
"] 	c #B6B6B6",
"^ 	c #969276",
"/ 	c #A6A05E",
"( 	c #D3CE9E",
"_ 	c #AAA672",
": 	c #525253",
"< 	c #17160D",
"[ 	c #827E62",
"} 	c #D2D2D2",
"| 	c #AFAA76",
"1 	c #9E9656",
"2 	c #F2F2F2",
"3 	c #565122",
"4 	c #C6C2A6",
"5 	c #9E9E9E",
"6 	c #3B3B3E",
"7 	c #E6E2C2",
"8 	c #121212",
"9 	c #C6C6C7",
"0 	c #C0BA7A",
"a 	c #E6E4C6",
"b 	c #8C864A",
"c 	c #DEDAB6",
"d 	c #100E09",
"e 	c #756D2D",
"f 	c #484848",
"g 	c #E2DEC2",
"h 	c #383838",
"i 	c #B2AA7A",
"j 	c #E2E2E2",
"k 	c #5E5626",
"l 	c #6E6E6E",
"m 	c #343216",
"n 	c #A2A2A2",
"o 	c #D6D6D7",
"p 	c #EAEADE",
"q 	c #7D7D7D",
"r 	c #625E52",
"s 	c #CECECE",
"t 	c #DEDEDE",
"u 	c #827A36",
"v 	c #202020",
"w 	c #929292",
"x 	c #3E3A18",
"y 	c #828266",
"z 	c #9A925D",
"A 	c #969696",
"B 	c #6F662B",
"C 	c #FEFEFE",
"D 	c #2B2B2B",
"E 	c #CFCB99",
"F 	c #6A6A6A",
"G 	c #BEBEBE",
"H 	c #C6C28E",
"I 	c #A6A6A5",
"J 	c #8E8A7E",
"K 	c #DEDAA4",
"L 	c #474218",
"M 	c #7A724A",
"N 	c #323232",
"O 	c #908B53",
"P 	c #AEAA66",
"Q 	c #DED6AA",
"R 	c #B2AE7A",
"S 	c #9A9A9A",
"T 	c #463E12",
"U 	c #C0BA89",
"V 	c #EAE6D6",
"W 	c #767676",
"X 	c #060606",
"Y 	c #262626",
"Z 	c #8E8E8E",
"` 	c #8A824B",
" .	c #968E4A",
"..	c #C2C2C3",
"+.	c #AAAAAA",
"@.	c #EBEBEB",
"#.	c #615A31",
"$.	c #676136",
"%.	c #BABABA",
"&.	c #CBCACA",
"*.	c #CEC693",
"=.	c #BAB282",
"-.	c #636362",
";.	c #161618",
">.	c #E6E6E6",
",.	c #9E9662",
"'.	c #968E5A",
").	c #1C1C14",
"!.	c #DADADA",
"~.	c #B2B2B2",
"{.	c #766E3A",
"].	c #524A1E",
"^.	c #B6B27C",
"/.	c #423D1A",
"(.	c #D6D2AA",
"_.	c #5A5223",
":.	c #F6F6F6",
"<.	c #837B41",
"[.	c #A29A65",
"}.	c #8A8A8A",
"|.	c #A9A26E",
"                                                                ",
"                          . Y : 6 8 . .                         ",
"                      d D ~.2 2 @.j A l . .                     ",
"                    ;.Z C j G s !.t @.o I -.Y                   ",
"                  . w ~ ] W l N h 6 l q &.I F .                 ",
"                ] D >.9 F ).~.      ] . }...5 D ]               ",
"                v ] } - .               . ] A q .               ",
"                X } ...                   8 %.- .               ",
"                X @.%..                   N &.w .               ",
"                . 2 I .                   f t w .               ",
"                . t +..                   6 @.Z .               ",
"                D t n .                   D :.w .               ",
"              k D j n . T L T T T T T T x Y ~ q . .             ",
"          k ! {.X ..; N 3 ].].+ L T x T T D o A . , d           ",
"        3 * e * B . . 3 B $.! ! $.! #.$._./.< . T 3 = .         ",
"        3 b B @ / 1 ^.( ( g p C C p g & ( =.[.<.B 3 m .         ",
"        3 u * / *.( ( & { 7 a 7 g c (.*.# / / u ! _.m .         ",
"        3 *  .0 { ~ { Q & *.H U ^.i _ ' ,. .O <.B #.% .         ",
"        : r b 0 $ ~ { Q & E ) U ^.R _ ' ,.'.O ` B #.% .         ",
"        : > ^ 4 V ~ { Q ( E H U =.i _ ' ,.'.b [ M #.x .         ",
"        : -.S 9 >.C 2 >.j t } s 9 %.~.; I 5 A J [ #.x .         ",
"        : -.S 9 @.C 2 p j !.o s ..G ] +.n 5 A J [ #.T .         ",
"        : -.w ..>.C 2 @.>.!.} s 9 G ] ; I 5 S J [ #./..         ",
"        : -.S 9 @.C 2 >.>.t o s 9 G ] ; I 5 A }.[ #.L .         ",
"        : -.S 9 >.C 2 >.p j o s 9 G ] ; I 5 A J y #.L .         ",
"        : -.S ..@.C 2 >.>.t o } 9 ..%.; +.n S J [ #.L .         ",
"        : > S 9 >.C 2 >.>.j o } 9 G %.~.I n S }.[ #.+ .         ",
"        : -.S ..@.C 2 >.>.j !.} &...%.; +.n S J [ #.+ .         ",
"        B {. .U 7 ~ $ K ( *.U U ^._ |.[.'.O ` <.B k x .         ",
"        * * @ P K ~ { Q ( E H U R i |.[.z O ` <.$.].% .         ",
"          T T b i ~ { K ( E U U ^.| |.[.z O ` <.+ . .           ",
"              m < ).v ).)., ).;., , < < < < d d d               "};
