/* XPM */
static const char * const  menu_xpm[] = {
"32 32 121 2",
"  	c None",
". 	c #030203",
"+ 	c #565A5A",
"@ 	c #8E8A96",
"# 	c #AAB2B2",
"$ 	c #221A22",
"% 	c #DEE6E2",
"& 	c #C6CECD",
"* 	c #362A36",
"= 	c #6E7672",
"- 	c #9EA2A6",
"; 	c #4A3E4A",
"> 	c #5E5E62",
", 	c #B2BABA",
"' 	c #92929A",
") 	c #D6DEDA",
"! 	c #646668",
"~ 	c #52525A",
"{ 	c #B6BEBE",
"] 	c #76667A",
"^ 	c #1B121B",
"/ 	c #867E8D",
"( 	c #F2F6F6",
"_ 	c #4A464A",
": 	c #D2DAD8",
"< 	c #443244",
"[ 	c #C2CAC6",
"} 	c #9A9AA2",
"| 	c #6A6E6E",
"1 	c #6E7272",
"2 	c #5A465A",
"3 	c #A2A6AA",
"4 	c #7A6A7E",
"5 	c #0A060A",
"6 	c #BAC2BE",
"7 	c #5A5A5E",
"8 	c #E6EAE9",
"9 	c #626262",
"0 	c #CED6D3",
"a 	c #6A566A",
"b 	c #56525A",
"c 	c #291E29",
"d 	c #7E7283",
"e 	c #A6AAAE",
"f 	c #130E13",
"g 	c #624E64",
"h 	c #767A7A",
"i 	c #523E52",
"j 	c #828686",
"k 	c #4A364A",
"l 	c #3E363E",
"m 	c #EEF2F0",
"n 	c #CED2D2",
"o 	c #BEC6C2",
"p 	c #6E5E72",
"q 	c #453A46",
"r 	c #96969E",
"s 	c #9A9EA5",
"t 	c #665268",
"u 	c #2E222E",
"v 	c #827686",
"w 	c #AEB6B6",
"x 	c #8A828F",
"y 	c #5A425A",
"z 	c #7A6E7E",
"A 	c #6A5A6E",
"B 	c #AAAEB2",
"C 	c #DAE2DE",
"D 	c #928E98",
"E 	c #CAD2CE",
"F 	c #FAFAFA",
"G 	c #3B2E3C",
"H 	c #504E54",
"I 	c #8A8692",
"J 	c #0D0A0D",
"K 	c #726276",
"L 	c #827A8A",
"M 	c #4E3A4E",
"N 	c #EBEEEE",
"O 	c #CACECE",
"P 	c #8E8692",
"Q 	c #1E161E",
"R 	c #B6BABA",
"S 	c #9E9EA6",
"T 	c #362636",
"U 	c #B2B6B8",
"V 	c #96929C",
"W 	c #564256",
"X 	c #161216",
"Y 	c #D6DADA",
"Z 	c #4E464E",
"` 	c #2A222A",
" .	c #666A6B",
"..	c #6E5A6E",
"+.	c #5E465E",
"@.	c #7E6E82",
"#.	c #AEB2B6",
"$.	c #261A26",
"%.	c #664E66",
"&.	c #120A12",
"*.	c #867A8A",
"=.	c #4A424E",
"-.	c #D2D6D6",
";.	c #827286",
">.	c #F2F2F2",
",.	c #DEE2E2",
"'.	c #322632",
").	c #DADEDC",
"!.	c #F6FAF6",
"~.	c #463646",
"{.	c #3E323E",
"].	c #504A53",
"^.	c #BAC2C2",
"/.	c #563E56",
"(.	c #E2E6E5",
"_.	c #A2A2AA",
":.	c #221622",
"<.	c #725E72",
"[.	c #BEC6C6",
"}.	c #5E4A5E",
"|.	c #C2CACA",
"                          $ c l           =.                    ",
"                        c M W M ~     q =.v ].].                ",
"                      u M 2 g t %.q ; @.v / I / j               ",
"                    ` i 2 %.a p ] 4 d L / P P # [.>             ",
"                  c /.2 g a t ] 4 @.v x I @ P 0 w ' Z           ",
"            :.$.u y +.2 W %.P <.] L I P @ r r U e x <.u         ",
"          $ ~.M 2 W M D ).% 0 : & P I D V } S - B d ~..         ",
"        :.k M 2 k p (.n #._.} V V , r r s S 3 B # [.O 7         ",
"        c M 2 M L >., 3 ' I L z ] <.*.3 - e B # w { ^.n =       ",
"        '.+.y @.N # S @ L ] t y c Q .  .e B # U { ^.[ E [.7     ",
"        * t M N w s P @...y $ 5          .w R ^.^.[.& Y [.r q   ",
"      * t y , o - P d a M f            .w , { ^.|.O -.) ^.} 4 Q ",
"  u G t A t N e ' v a k 5             | R ^.[.[ E : n ^., r ] $.",
"  {.a ....P & S / K i J               1 { [.& E : [ w 3 } V 4 f ",
"* t p ] <.e 6 V @.g ^               1 ^.o |.E 0 ^.B S D / @.K ^ ",
"* p ] @.] # w @ K k .             1 ^.[.|.n Y |.B } I @.p +.k 5 ",
"7 <.4 v ;.V { x a ^             9 ^.[ & E 0 ,., s x 4 %.M f .   ",
"  ! 4 L I *.|.x }.J           9 [.[.& 0 : ).(.w D d t < 5       ",
"    Z x @ D ' } M .         = o & & n -.).,.>.{ P <.M 5         ",
"    b @ ' r s e r {.  + 1 1 ^.|.O 0 : ).% 8 m (.@ A X           ",
"  ].@ D r S - e w { | { ^.|.& E 0 ).).(.8 N F !.B p f           ",
"  + V r S - e B w R ^.^.|.& E 0 Y ).(.8 m F ( { , P f           ",
"  7 } s 3 3 B w , { o [ & n : ,.8 m >.m !.( { #.S V *           ",
"  > } 3 , ^.w R ^.o [.& 0 ) ).[ { , & ( ( R #.- @ d q           ",
"    h : 6 w { 6 [.& & 0 Y ).^.# - ' V } { U } @ d a M 5         ",
"      ! s ' L E & n n Y % ^.B r P v ] ] ;.} D @.a M J           ",
"        ].@.}.U : 0 ).(.0 w } x 4 t /.$ Q u ; ..M 5             ",
"          G T ].m % (.8 { 3 D @.%.< &.        Q 5               ",
"            .   | R R R U } L p k J                             ",
"                  _ ' r r D z 2 &.                              ",
"                    {.K 4 ] K c                                 ",
"                      Q f $.$.f                                 "};
