/* XPM */
static const char * const  reload_xpm[] = {
"32 32 105 2",
"  	c None",
". 	c #020202",
"+ 	c #12AA46",
"@ 	c #0E7A32",
"# 	c #02220E",
"$ 	c #52BE76",
"% 	c #4A4A4A",
"& 	c #4A7A5E",
"* 	c #7AAA8A",
"= 	c #0E622A",
"- 	c #AAAAAA",
"; 	c #2A2A2A",
"> 	c #6E6E6E",
", 	c #062A12",
"' 	c #92C6A2",
") 	c #C6C6C6",
"! 	c #568A66",
"~ 	c #767676",
"{ 	c #5A5A5A",
"] 	c #5A926E",
"^ 	c #063216",
"/ 	c #16863A",
"( 	c #7E7E7E",
"_ 	c #4EAE6E",
": 	c #464646",
"< 	c #D2D2D2",
"[ 	c #0A5E2A",
"} 	c #062612",
"| 	c #868686",
"1 	c #129642",
"2 	c #96D6AA",
"3 	c #22A24E",
"4 	c #C2E2CE",
"5 	c #6AD68E",
"6 	c #0A0A0A",
"7 	c #2ECA6A",
"8 	c #C6E6CE",
"9 	c #3E3E3E",
"0 	c #063A1A",
"a 	c #129E42",
"b 	c #9A9A9A",
"c 	c #5E5E5E",
"d 	c #1E1E1E",
"e 	c #D6D6D6",
"f 	c #3EBE62",
"g 	c #528E66",
"h 	c #BABABA",
"i 	c #CAE6D2",
"j 	c #5AD672",
"k 	c #063E1A",
"l 	c #626262",
"m 	c #2E2E2E",
"n 	c #86CA9A",
"o 	c #DEEEE2",
"p 	c #2E5A3E",
"q 	c #565656",
"r 	c #46CE62",
"s 	c #8A8A8A",
"t 	c #9EDAB2",
"u 	c #262626",
"v 	c #363636",
"w 	c #4E8A62",
"x 	c #9ECAAA",
"y 	c #12A242",
"z 	c #06421E",
"A 	c #929292",
"B 	c #1EB24E",
"C 	c #62C682",
"D 	c #0A6A2E",
"E 	c #666666",
"F 	c #A2A2A2",
"G 	c #B6B6B6",
"H 	c #525252",
"I 	c #1EA64E",
"J 	c #76DA96",
"K 	c #A2E2B6",
"L 	c #222222",
"M 	c #4E4E4E",
"N 	c #969696",
"O 	c #2AA656",
"P 	c #6A6A6A",
"Q 	c #727272",
"R 	c #323232",
"S 	c #12AE4A",
"T 	c #1AAA4E",
"U 	c #AEAEAE",
"V 	c #16A64A",
"W 	c #9E9E9E",
"X 	c #06461E",
"Y 	c #3A3A3A",
"Z 	c #424242",
"` 	c #062E12",
" .	c #7A7A7A",
"..	c #12A646",
"+.	c #BEBEBE",
"@.	c #828282",
"#.	c #0E6A2E",
"$.	c #A6A6A6",
"%.	c #96C6A2",
"&.	c #A2CAAE",
"*.	c #2EA65A",
"=.	c #12622E",
"-.	c #528A66",
";.	c #062E16",
">.	c #12AA4A",
"                          X X X k ^ ;., }                       ",
"                      X z ] t i o 2 $ y p . .                   ",
"                  X z ] 4 o 2 $ y @ D [ z z } . .               ",
"                X -.x o K 5 _ @ = X . . . . . } # .             ",
"              z w %.o K $ 3 D z . .           . . # .           ",
"              X x o K y *.#.z .                   . # .         ",
"            z -.o K $ O / X .                       . .         ",
"            X &.o 5 >./ D .                             .       ",
"          z & 4 K $ O #.z .                                     ",
"          X ! o 5 T V #..                                       ",
"          X ! o $ V V [ .                                       ",
";.^ 0 k z z g 8 $ V a #.. 0 X X 0 ;.        R .                 ",
". ` ' 8 o o 4 n B + a * ' 4 o ' z .       v : R .               ",
"  . X 1 $ 5 5 $ + + ..C J 5 1 z .       R : - % R .             ",
"    . X #.a 7 B S S f r 1 #.X .       v : ) N ~ % R .           ",
"      . X D 1 7 >.f j 1 D X .       R : < A c c s % R .         ",
"        . X D 1 f r 1 D z .       v : < A q 9 M c N % R .       ",
"          . X D 1 1 D X .       R : < A q 9 L u M c A % R .     ",
"            . z D D X .       v % ) A { Y L L L u M c @.: R .   ",
"              . X X .       R : - s q % % v u u Y m % l  .% R . ",
"                . .         . . . . . .  .> v u q d . . . . . . ",
"                                      6 s ~ Z L { d .           ",
"                                      v $.| Z L c d .           ",
"                                      R - ( 9 Y l d .           ",
"      .                             R > G P L l : .             ",
"        . .                       R E +.N M 9 > d .             ",
"        . . .                   v % G b E L E m .               ",
"          . . . .           R R P +.$.> u E { u .               ",
"            . R v . . R R v P U +.b > m Q { u .                 ",
"              . . R l @.A W U b q ; l Q u . .                   ",
"                  . . R 9 H c > E ~ { . .                       ",
"                      . . . . . . . .                           "};
