/* XPM */
static const char * const  stop_xpm[] = {
"32 32 121 2",
"  	c None",
". 	c #020202",
"+ 	c #F6F6F2",
"@ 	c #D67A72",
"# 	c #260202",
"$ 	c #8A625A",
"% 	c #420202",
"& 	c #B24E46",
"* 	c #BE463A",
"= 	c #F2E2E2",
"- 	c #6E0202",
"; 	c #7E0202",
"> 	c #BA423A",
", 	c #8E0202",
"' 	c #CABEB6",
") 	c #BE2616",
"! 	c #920202",
"~ 	c #960202",
"{ 	c #E2827A",
"] 	c #9A726A",
"^ 	c #9E0602",
"/ 	c #BA625A",
"( 	c #CE6A62",
"_ 	c #5E2A22",
": 	c #BA0602",
"< 	c #DA8E86",
"[ 	c #D66E66",
"} 	c #FEFEFA",
"| 	c #FEB6AE",
"1 	c #5A0202",
"2 	c #C6564A",
"3 	c #9E3E36",
"4 	c #C6726A",
"5 	c #C64E42",
"6 	c #E29A92",
"7 	c #DECEC6",
"8 	c #D6726A",
"9 	c #FAEAE6",
"0 	c #C23E36",
"a 	c #3E0202",
"b 	c #620202",
"c 	c #FAFAF6",
"d 	c #CA625A",
"e 	c #CA5E53",
"f 	c #DE7A72",
"g 	c #8A0202",
"h 	c #CA726A",
"i 	c #DA766E",
"j 	c #C2463A",
"k 	c #7A0202",
"l 	c #DA726A",
"m 	c #CE726A",
"n 	c #6A0202",
"o 	c #BE423A",
"p 	c #DE968E",
"q 	c #DE6E6A",
"r 	c #C24A3E",
"s 	c #C65246",
"t 	c #CE766E",
"u 	c #CE625A",
"v 	c #CA5A4E",
"w 	c #E69E96",
"x 	c #F6E6E2",
"y 	c #FAEEEA",
"z 	c #DE726A",
"A 	c #D2665A",
"B 	c #C64A3E",
"C 	c #BA0A02",
"D 	c #E27E76",
"E 	c #F6F6F6",
"F 	c #DE766E",
"G 	c #820202",
"H 	c #C6423A",
"I 	c #E27A76",
"J 	c #CA564A",
"K 	c #660202",
"L 	c #FAFAFA",
"M 	c #DA928A",
"N 	c #FEBAB2",
"O 	c #DA6E6A",
"P 	c #D2726A",
"Q 	c #CA4E46",
"R 	c #CE5E56",
"S 	c #9A0602",
"T 	c #E69A92",
"U 	c #CA5246",
"V 	c #D27671",
"W 	c #C24237",
"X 	c #D26A5E",
"Y 	c #E2968E",
"Z 	c #FEEEEA",
"` 	c #DE928A",
" .	c #C6463E",
"..	c #EA9E96",
"+.	c #BE261A",
"@.	c #FEFEFE",
"#.	c #DE7A76",
"$.	c #DE7672",
"%.	c #D66E6A",
"&.	c #DA726E",
"*.	c #DE726E",
"=.	c #C64E46",
"-.	c #DE928E",
";.	c #D67A76",
">.	c #BE463E",
",.	c #FEB6B2",
"'.	c #C6564E",
").	c #FAEAEA",
"!.	c #DA7672",
"~.	c #C24A42",
"{.	c #F6E6E6",
"].	c #CE625E",
"^.	c #D6726E",
"/.	c #CE726E",
"(.	c #CA5A52",
"_.	c #D2665E",
":.	c #C64A42",
"<.	c #CA564E",
"[.	c #D26A62",
"}.	c #E2827E",
"|.	c #C2463E",
"                                                                ",
"                                                                ",
"                    . . . . . . . . . . . . .                   ",
"                  . 5 :.~.~.r |.>.* * > > > > .                 ",
"                . =.| Z ).).).9 {.{.x = = ' $ _ .               ",
"              . =.,.@.w w T 6 Y Y ` ` ` 4 & & k a .             ",
"            . U ,.@.< I ;.@ ;.t @ t t h h 4 / ^ k a .           ",
"          . Q ,.@.` m l l 8 %.%._.u e J B B : : ^ ; a .         ",
"        . s N @.< 8 z O $.F i ^.[ [.u (.J j ) : : ~ k a .       ",
"      . =.,.@.` 8 F z @.z D $.i ^.[.X u v E +.) C : ^ b # .     ",
"    . 5 | @...D &.*.@.@.@.*.{ I $.%.[.u E E E ) : : : k 1 a .   ",
"    . Q )...#.O q @.@.@.@.@.q { @ i _.L c + + + C : : g K a .   ",
"    . 5 ).w ;.l $.*.@.@.@.@.@.q #.[.@.L L E E ) : : : g - a .   ",
"    . :.y T @ l F I *.@.@.@.@.@.[.@.L c E E ~.) C : : ! n a .   ",
"    . r 9 6 @ %.i I { *.@.@.@.@.@.@.L c E 2 ~.) : : : , - a .   ",
"    . |.).6 V [ l i I { z @.@.@.@.} L E e 2 * ) : : : , n a .   ",
"    . >.{.p V [.[ ^.!.$.#.O @.@.@.L L d (.s 0 ) : : : , - a .   ",
"    . r x p /.u [.[ [ ^.[.@.@.@.L L + + 2 ~.) ) : : : , n a .   ",
"    . >.= ` t R u [.[._.} @.L L E E E + + o ) : : : : , - a .   ",
"    . * = M m J e u ( L L c c c d E E E E + C ^ : : : , n a .   ",
"    . * = < h :.J v E E E E E e v 2 + + + + + : : : : , n a .   ",
"    . o 7 4 h ) W E c E E E '.s s r > E y + + + : : : g K a .   ",
"    . > ] & > C ) +.E E E B ~.|.o ) ) : E y E : : : , ; 1 a .   ",
"      . _ 3 S : C : C + ) +.) ) ) : : ^ : E ^ : : ! G b a .     ",
"        . a k ~ : : : : C C : : : : : : : : : : ! G b a .       ",
"          . % ; S : : C : : : : : : : : : : : ! G b a .         ",
"            . a k S : : : : : : : : : : : : , G b % .           ",
"              . a - k G g g g g g g g g g g ; b a .             ",
"                . a 1 K n n n n n n n - n K 1 % .               ",
"                  . a a a % % a % % % a a a a .                 ",
"                    . . . . . . . . . . . . .                   ",
"                                                                "};
