/* XPM */
static const char * const  viewmag_xpm[] = {
"32 32 121 2",
"  	c None",
". 	c #020202",
"+ 	c #0A0A0A",
"@ 	c #4B4B4A",
"# 	c #06AEB2",
"$ 	c #7E7E82",
"% 	c #8E8E8E",
"& 	c #9A9A9A",
"* 	c #9EA2A2",
"= 	c #B4BABB",
"- 	c #C2C2C2",
"; 	c #3F9EA6",
"> 	c #7DCAD6",
", 	c #CDDADD",
"' 	c #0EFEFA",
") 	c #0E0E0E",
"! 	c #9EDDE5",
"~ 	c #DAE6E6",
"{ 	c #121212",
"] 	c #4CB5BF",
"^ 	c #7A7A7A",
"/ 	c #62CBD7",
"( 	c #161616",
"_ 	c #DEEEEE",
": 	c #C2EAF2",
"< 	c #86D3DE",
"[ 	c #BAC2C2",
"} 	c #0AE2DE",
"| 	c #2E2E2E",
"1 	c #6AC2CF",
"2 	c #AEDEE6",
"3 	c #424242",
"4 	c #525252",
"5 	c #EEFAFB",
"6 	c #8ED6DE",
"7 	c #BCE6ED",
"8 	c #4EC4D0",
"9 	c #C6E6EE",
"0 	c #DAFAFA",
"a 	c #C9D5D5",
"b 	c #93D5DE",
"c 	c #D3F7FA",
"d 	c #66CADA",
"e 	c #5E5E5E",
"f 	c #B0B6BA",
"g 	c #EAEAEA",
"h 	c #3E3E3E",
"i 	c #53AEB7",
"j 	c #D2EAEE",
"k 	c #98DAE2",
"l 	c #81D6E1",
"m 	c #52B2BA",
"n 	c #44A5AE",
"o 	c #EAF6FA",
"p 	c #AAE6EE",
"q 	c #DCF2F3",
"r 	c #52C2CE",
"s 	c #BEEEF3",
"t 	c #C6E2EA",
"u 	c #828282",
"v 	c #E6F4F7",
"w 	c #363636",
"x 	c #DEFAFA",
"y 	c #CAE2E2",
"z 	c #76D2DE",
"A 	c #565653",
"B 	c #76CAD6",
"C 	c #FEFEFE",
"D 	c #A5E3EC",
"E 	c #5EB6C2",
"F 	c #D2EEF2",
"G 	c #B2E2EA",
"H 	c #CAEAF2",
"I 	c #868686",
"J 	c #57B6C1",
"K 	c #E1EAEE",
"L 	c #B2EAF2",
"M 	c #86DAE2",
"N 	c #5FBECA",
"O 	c #7AD2E2",
"P 	c #CEF2F2",
"Q 	c #D1E2E7",
"R 	c #47AAB2",
"S 	c #C2F2F8",
"T 	c #8EDEE6",
"U 	c #E6FAFA",
"V 	c #D2D2D2",
"W 	c #A7A7A7",
"X 	c #99DEE9",
"Y 	c #E2E2E2",
"Z 	c #9AD6E2",
"` 	c #E2F6FA",
" .	c #BDEAF1",
"..	c #C9EFF3",
"+.	c #D2F2F6",
"@.	c #666666",
"#.	c #323231",
"$.	c #D6DADA",
"%.	c #7FCED6",
"&.	c #060606",
"*.	c #4EBAC2",
"=.	c #DDF6FA",
"-.	c #72C6D2",
";.	c #5A5A5A",
">.	c #8A8A8A",
",.	c #58BAC8",
"'.	c #A3DEE6",
").	c #E3EEF1",
"!.	c #D6E2E6",
"~.	c #8ADAE2",
"{.	c #B1E6EE",
"].	c #6DC6CF",
"^.	c #4AA6B2",
"/.	c #4EAAB6",
"(.	c #76CEDA",
"_.	c #EAFBFB",
":.	c #EEFEFA",
"<.	c #D6F2F6",
"[.	c #8EDAE6",
"}.	c #929292",
"|.	c #C2EEF2",
"              I . . . . . . I                                   ",
"          . . #.;.$ & & % @.( . .                               ",
"        . 4 $ * , , , Q , a a W @ .                             ",
"      . 4 = ~ )._ v 0 c +.F c x $.^ .                           ",
"    . A = ~ ` U =.c F ..s {.G |.F K e .                         ",
"  . 4 f !._.5 _.` P P  .{.'.Z k s +.).| .                       ",
"  . u ~ o :.:.:.U <... .{.k b %.b {.x - .                       ",
"I | * _ o 5 5 C U <...7 p ! b > > 6 S !.&.I                     ",
". @ a ).=.` U ` q F : L p k < B ].-.D y @ )                     ",
". $ !._.c P q q +.9 7 D X [.O 1 N 1 X 7 * +                     ",
". & K U F : .... . .D X T l (.N J N !  .- +                     ",
". & ~ =.H  . .L {.p ! [.~.O d *.m J k s V +                     ",
". % !._ 7 G L p D k [.l z / r ] n m l {.W +                     ",
". @ a +.2 Z ! X X ~.M z / r ] R ^.E ! 9 A +                     ",
">.( = F 2 b < ~.~.l (./ 8 ] R ; i B L !.. I                     ",
"  . % j  .X > > B ].N ,.*.R ; n ,.T 0 }..                       ",
"  . @ = F s b (.].,.m R n ; i J [.|.v | I                       ",
"    . ^ [ F 2 Z %.1 E i R J B ~.s v ;.. .                       ",
"      . ^ = <.s '.k < > > 6 {.0 _ A . $ ' .                     ",
"        . w >.= y 7 {.p '.t !.>.| . @ } } Y .                   ",
"          . . . @ & - V W A . . u &.# # 4 >.g .                 ",
"              I . . . . . . u       . #.@ 4 >.g .               ",
"                                      . #.h 4 >.g .             ",
"                                        . w 3 4 >.g .           ",
"                                          . w h 4 >.g .         ",
"                                            . w h A >.g .       ",
"                                              . #.h A >.g .     ",
"                                                . #.3 A >.Y .   ",
"                                                  . #.3 A >.{   ",
"                                                    . #.3 @ )   ",
"                                                      . + +     ",
"                                                                "};
