/* XPM */
static const char * const  connect_creating_xpm[] = {
"32 32 85 1",
" 	c None",
".	c #F9F900",
"+	c #C2C200",
"@	c #C9C900",
"#	c #CDCD00",
"$	c #C4C400",
"%	c #A3A300",
"&	c #787800",
"*	c #F4F400",
"=	c #F7F700",
"-	c #C3C300",
";	c #C0C000",
">	c #BEBE00",
",	c #BDBD00",
"'	c #BBBB00",
")	c #C1C100",
"!	c #A8A800",
"~	c #000000",
"{	c #C5C500",
"]	c #FFFFFF",
"^	c #C4C1C4",
"/	c #00000D",
"(	c #F0F000",
"_	c #A5A500",
":	c #DEDEDE",
"<	c #BCBC00",
"[	c #7D7D00",
"}	c #000001",
"|	c #929200",
"1	c #7B7B00",
"2	c #DCDCDC",
"3	c #DDDDDD",
"4	c #707000",
"5	c #7C7C00",
"6	c #7E7E00",
"7	c #838183",
"8	c #BDBBC0",
"9	c #DFDFDF",
"0	c #DEDFDE",
"a	c #E4E2E4",
"b	c #111100",
"c	c #5A595A",
"d	c #E1E1E1",
"e	c #E0E0E0",
"f	c #E6E3E6",
"g	c #E0DDE0",
"h	c #DCDCDD",
"i	c #B1AFB1",
"j	c #626162",
"k	c #5B5A5B",
"l	c #8B898B",
"m	c #E0E1E0",
"n	c #DDDCDD",
"o	c #010101",
"p	c #807D80",
"q	c #DDDBDD",
"r	c #696969",
"s	c #DFDEDF",
"t	c #A9A6A9",
"u	c #817F81",
"v	c #BFBDBF",
"w	c #C8C6C8",
"x	c #A5A2A5",
"y	c #CAC8CA",
"z	c #636263",
"A	c #9B989B",
"B	c #868486",
"C	c #080808",
"D	c #0A0A0A",
"E	c #6A676A",
"F	c #444444",
"G	c #686768",
"H	c #5D5C5D",
"I	c #D5D3D5",
"J	c #040404",
"K	c #050505",
"L	c #CECBCE",
"M	c #0C0B0C",
"N	c #0E0E0E",
"O	c #0B0A0B",
"P	c #DBDADB",
"Q	c #141314",
"R	c #060606",
"S	c #D9D7D9",
"T	c #070607",
"                           .... ",
"                        ...+@#$%",
"                     ...$$$$$%%&",
"                  *.=$$$$$$$%&& ",
"                 $$--$;$-+%%&   ",
"                 &%>+,;$$%&&    ",
"                  &%'-;$$&      ",
"                   &%$;;;;      ",
"                    &%-;;+)     ",
"                     &%;;;;;    ",
"                      &!;;;;;   ",
"           ~~        *;;;;-{${  ",
"          ~]^/     .(;;;$-;;%__ ",
"         ~]::^~   .;;;;;<%%%&&[ ",
"        ~]::::^~..;;;;%%%&&&    ",
"       ~]::::::^}|;_%%1&&       ",
"      ~]:223::::^}4561          ",
"      ~7899::0a::^b             ",
"      ~c783d:3eaf:^~            ",
"      ~cc78:9:::g::^~           ",
"      ~ccc78e9::::h:i~          ",
"       ~cjkl8:d:mn:i7~          ",
"        opqr78sdn:tu7~          ",
"        ~v]wc78::x77c~          ",
"       ~v]ytzk78AB7cC           ",
"      Dv]qEFGHcc77c~            ",
"     ~v]IEJKoccc7c~             ",
"    ~v]LEM   NcccO              ",
"   Jv]PEQ     ~~~               ",
"  Rv]SE~                        ",
" ~v]vET                         ",
"                                "};
