/* XPM */
static const char * const  connect_creating_xpm[] = {
"16 16 13 1",
" 	c None",
".	c #000000",
"+	c #FFFFFF",
"@	c #000000",
"#	c #C0C000",
"$	c #DCDCDC",
"%	c #C3C3C3",
"&	c #808080",
"*	c #808000",
"=	c #FFFF00",
"-	c #585858",
";	c #A0A0A0",
">	c #FFFFFF",
"            ====",
"         ===###*",
"         ####** ",
"         *###   ",
"   @@     *###  ",
"  @>%@    =#### ",
" @>$$%@  =###** ",
"@&%$$$%@=##**   ",
"@-&%$$$%@**     ",
"@--&%$$$%@      ",
" @-%&%$$%;@     ",
"  @>;&%$;&@     ",
" @>;&-&;&-@     ",
"@>;@@-&&-@      ",
">;@  @--@       ",
";@    @@        "};
