/* XPM */
static const char * const  back_xpm[] = {
"16 16 63 1",
" 	c None",
".	c #0E5D79",
"+	c #105570",
"@	c #1F3C51",
"#	c #1A5872",
"$	c #4990A8",
"%	c #020405",
"&	c #1A536D",
"*	c #5C95AB",
"=	c #E2F3FB",
"-	c #000000",
";	c #18546D",
">	c #3889A2",
",	c #7CCCDD",
"'	c #104E62",
")	c #0E5C78",
"!	c #135C77",
"~	c #6298AE",
"{	c #1DBDD1",
"]	c #9BE7F1",
"^	c #CCF0F8",
"/	c #7ECDDE",
"(	c #0A1C2A",
"_	c #105772",
":	c #4A8FA7",
"<	c #E1F2FA",
"[	c #7BCBDC",
"}	c #17BFD2",
"|	c #0DB3CA",
"1	c #10BDD2",
"2	c #1DC0D4",
"3	c #14BED2",
"4	c #56B7C8",
"5	c #08202F",
"6	c #0A1521",
"7	c #15637E",
"8	c #10A0B8",
"9	c #29D9DB",
"0	c #10BFD2",
"a	c #0EB5CB",
"b	c #1FCDD6",
"c	c #28D8DA",
"d	c #07202E",
"e	c #082232",
"f	c #13607B",
"g	c #10A2B9",
"h	c #41E8E4",
"i	c #12ACC0",
"j	c #20A2B5",
"k	c #27A6B7",
"l	c #149EB1",
"m	c #1291A2",
"n	c #071B2A",
"o	c #13647E",
"p	c #0FA0B9",
"q	c #0D6881",
"r	c #092B3D",
"s	c #092C3D",
"t	c #115E79",
"u	c #0E9AB3",
"v	c #010202",
"w	c #071C2B",
"x	c #06121E",
"                ",
"        .       ",
"       +@       ",
"      #$%       ",
"     &*=-       ",
"    ;>=,'...).  ",
"   !~=,{]^=^/(  ",
"  _:<[}|123245  ",
"  67890abcccbd  ",
"   efgh1ijklm-  ",
"    nop9qrss--  ",
"     ntuv       ",
"      w.-       ",
"       x-       ",
"        -       ",
"                "};
