/* XPM */
static const char * const  bar_close_xpm[] = {
"16 14 8 1",
" 	c None",
".	c #000000",
"+	c #B7B7B7",
"@	c #CBCBCB",
"#	c #888888",
"$	c #FFFFFF",
"%	c #5A5A5A",
"&	c #2D2D2D",
"                ",
"     .......... ",
"    .++++++++@. ",
"   .##$$###$$#. ",
"  .%%%$$$%$$$%. ",
" .&&&&&$$$$$&&. ",
"........$$$.... ",
" ......$$$$$... ",
"  ....$$$.$$$.. ",
"   ...$$...$$.. ",
"    ........... ",
"     .......... ",
"                ",
"                "};
