/* XPM */
static const char * const  bookmark_add_xpm[] = {
"16 16 39 1",
" 	c None",
".	c #2A2A2A",
"+	c #B8B8B8",
"@	c #B7B7B7",
"#	c #474747",
"$	c #555555",
"%	c #373737",
"&	c #A5A5A5",
"*	c #B3B3B3",
"=	c #000000",
"-	c #ACACAC",
";	c #C4C4C4",
">	c #BDBDBD",
",	c #AFAFAF",
"'	c #A3A3A3",
")	c #A1A1A1",
"!	c #B1B1B1",
"~	c #858585",
"{	c #959595",
"]	c #9E9E9E",
"^	c #AEAEAE",
"/	c #757575",
"(	c #8A8A8A",
"_	c #949494",
":	c #929292",
"<	c #909090",
"[	c #9A9A9A",
"}	c #FFFFC0",
"|	c #737373",
"1	c #868686",
"2	c #8C8C8C",
"3	c #303030",
"4	c #FFFF00",
"5	c #707070",
"6	c #828282",
"7	c #C0C000",
"8	c #6C6C6C",
"9	c #7F7F7F",
"0	c #FFFFFF",
"    .           ",
"    ..          ",
"    .+.         ",
"    .+@.        ",
"###$%@&*.       ",
" =-;>,')!.      ",
"  =~&'){]^.     ",
"   =/(_:<[=}    ",
"    =|1=}234.=} ",
"     =56=47474  ",
"      =897}}}7. ",
"      =}44}0}44}",
"        =7}}}7= ",
"        =47474  ",
"       =} =4==} ",
"          =}    "};
