/* XPM */
static const char * const  bookmark_xpm[] = {
"16 16 52 1",
" 	c None",
".	c #2A2A2A",
"+	c #B8B8B8",
"@	c #B7B7B7",
"#	c #474747",
"$	c #555555",
"%	c #373737",
"&	c #A5A5A5",
"*	c #B3B3B3",
"=	c #000000",
"-	c #ACACAC",
";	c #C4C4C4",
">	c #BDBDBD",
",	c #AFAFAF",
"'	c #A3A3A3",
")	c #A1A1A1",
"!	c #B1B1B1",
"~	c #858585",
"{	c #B9B9B9",
"]	c #9E9E9E",
"^	c #AEAEAE",
"/	c #757575",
"(	c #8A8A8A",
"_	c #777777",
":	c #6A6A6A",
"<	c #747474",
"[	c #9A9A9A",
"}	c #ABABAB",
"|	c #737373",
"1	c #868686",
"2	c #B6B6B6",
"3	c #959595",
"4	c #A7A7A7",
"5	c #707070",
"6	c #828282",
"7	c #717171",
"8	c #646464",
"9	c #6E6E6E",
"0	c #929292",
"a	c #6C6C6C",
"b	c #7F7F7F",
"c	c #B0B0B0",
"d	c #ADADAD",
"e	c #8E8E8E",
"f	c #696969",
"g	c #7A7A7A",
"h	c #6B6B6B",
"i	c #5F5F5F",
"j	c #8C8C8C",
"k	c #666666",
"l	c #767676",
"m	c #626262",
"    .           ",
"    ..          ",
"    .+.         ",
"    .+@.        ",
"###$%@&*.       ",
" =-;>,')!.      ",
"  =~&'){]^.     ",
"   =/(_:<[}.    ",
"    =|12>*34.   ",
"     =567890&.  ",
"      =abc@de). ",
"       =fghibj).",
"        =klb/m= ",
"         =m/m=  ",
"          =m=   ",
"           =    "};
