/* XPM */
static const char * const  close_xpm[] = {
"16 16 4 1",
" 	c None",
".	c #000000",
"+	c #000000",
"@	c #FFFFFF",
"                ",
"                ",
"      +++++     ",
"    +++++++++   ",
"   +++++++++++  ",
"   ++@@+++@@++  ",
"  +++@@@+@@@+++ ",
"  ++++@@@@@++++ ",
"  +++++@@@+++++ ",
"  ++++@@@@@++++ ",
"  +++@@@+@@@+++ ",
"   ++@@+++@@++  ",
"   +++++++++++  ",
"    +++++++++   ",
"      +++++     ",
"                "};
