/* XPM */
static const char * const  file_broken_xpm[] = {
"32 32 222 2",
"  	c None",
". 	c #868686",
"+ 	c #7D7D7D",
"@ 	c #777777",
"# 	c #6F6F6F",
"$ 	c #6A6A6A",
"% 	c #676767",
"& 	c #656565",
"* 	c #626262",
"= 	c #606060",
"- 	c #585858",
"; 	c #515151",
"> 	c #4A4A4A",
", 	c #484848",
"' 	c #3D3D3D",
") 	c #2E2E2E",
"! 	c #020202",
"~ 	c #C9C9C9",
"{ 	c #C1C1C1",
"] 	c #BABABA",
"^ 	c #ACACAC",
"/ 	c #9D9D9D",
"( 	c #464646",
"_ 	c #000000",
": 	c #7A7A7A",
"< 	c #FFFFFF",
"[ 	c #FEFEFE",
"} 	c #F5F5F5",
"| 	c #E3E3E3",
"1 	c #D8D8D8",
"2 	c #898989",
"3 	c #707070",
"4 	c #4D4D4D",
"5 	c #6E6E6E",
"6 	c #545454",
"7 	c #6D6D6D",
"8 	c #5C5C5C",
"9 	c #E0E0E0",
"0 	c #6C6C6C",
"a 	c #616161",
"b 	c #C6C6C6",
"c 	c #6B6B6B",
"d 	c #696969",
"e 	c #505050",
"f 	c #4C4C4C",
"g 	c #444444",
"h 	c #3E3E3E",
"i 	c #3A3A3A",
"j 	c #333333",
"k 	c #FAFAFA",
"l 	c #DCDBD9",
"m 	c #D1D1CC",
"n 	c #BCBAB3",
"o 	c #A4A197",
"p 	c #87837E",
"q 	c #797674",
"r 	c #5C5957",
"s 	c #E4E4E4",
"t 	c #C8C7C5",
"u 	c #B8B3AB",
"v 	c #7C7875",
"w 	c #686868",
"x 	c #F2F2F1",
"y 	c #E7E5E2",
"z 	c #DEDCD9",
"A 	c #D3CDC0",
"B 	c #968F85",
"C 	c #666666",
"D 	c #F5EFE6",
"E 	c #F3ECDE",
"F 	c #FBF9F6",
"G 	c #F5F2EE",
"H 	c #EFEBE4",
"I 	c #E4DFD9",
"J 	c #DBD7CE",
"K 	c #D2CCC1",
"L 	c #A7A194",
"M 	c #F4EDE0",
"N 	c #F4EFE9",
"O 	c #F3EDE4",
"P 	c #EDE6DE",
"Q 	c #E1DBD2",
"R 	c #DFDACE",
"S 	c #B2A89B",
"T 	c #F0E6D2",
"U 	c #F8F1E9",
"V 	c #F0EBE1",
"W 	c #EAE3D9",
"X 	c #E9E1D6",
"Y 	c #EAD9BF",
"Z 	c #636363",
"` 	c #EFE4D0",
" .	c #F0E8DD",
"..	c #EEE6DB",
"+.	c #191919",
"@.	c #FCFBF9",
"#.	c #F5F1EC",
"$.	c #F0E5D1",
"%.	c #F3EBDC",
"&.	c #EDE4D6",
"*.	c #202020",
"=.	c #616060",
"-.	c #3F3F3F",
";.	c #454545",
">.	c #3F3E3E",
",.	c #BCAB93",
"'.	c #FAF6F1",
").	c #5E5E5E",
"!.	c #E8D5B5",
"~.	c #BBAA90",
"{.	c #5F5F5F",
"].	c #EDDDC7",
"^.	c #555555",
"/.	c #E8D8BF",
"(.	c #BFAB90",
"_.	c #4F4F4F",
":.	c #F1E3D1",
"<.	c #5A5A5A",
"[.	c #E6D6BB",
"}.	c #BFA98C",
"|.	c #5D5D5D",
"1.	c #F2E8D7",
"2.	c #EDDCC4",
"3.	c #F3E9DA",
"4.	c #E5D4B6",
"5.	c #BEA989",
"6.	c #F0E1CD",
"7.	c #F2E6D7",
"8.	c #EEDEC8",
"9.	c #E9D6BA",
"0.	c #E6D2B2",
"a.	c #BDA784",
"b.	c #F9F4EE",
"c.	c #F0E2CF",
"d.	c #F1E7D6",
"e.	c #F0E3D1",
"f.	c #EFE2CE",
"g.	c #EAD9BD",
"h.	c #E8D4B5",
"i.	c #E7D2B2",
"j.	c #BCA481",
"k.	c #F4EADC",
"l.	c #5B5B5B",
"m.	c #EFE1CC",
"n.	c #EEE0C9",
"o.	c #ECDBC1",
"p.	c #E7D0B0",
"q.	c #E6CFAD",
"r.	c #E6CEAA",
"s.	c #BEA481",
"t.	c #2E261E",
"u.	c #FBF8F6",
"v.	c #F8F4ED",
"w.	c #F7F1E8",
"x.	c #F4EEE2",
"y.	c #ECDABF",
"z.	c #E9D7B8",
"A.	c #E5CDA8",
"B.	c #E2CAA6",
"C.	c #BFA37C",
"D.	c #2E2A1E",
"E.	c #F9F5F0",
"F.	c #F4EDE1",
"G.	c #EEDFC9",
"H.	c #EEDEC7",
"I.	c #E9D5B8",
"J.	c #E6CFAB",
"K.	c #E4C9A3",
"L.	c #E2C69E",
"M.	c #BEA279",
"N.	c #2E261A",
"O.	c #F8F3EB",
"P.	c #F5EEE4",
"Q.	c #F2E8D9",
"R.	c #F1E6D4",
"S.	c #F0E4CF",
"T.	c #EAD8BB",
"U.	c #E8D3B3",
"V.	c #E3C8A2",
"W.	c #BE9E75",
"X.	c #F3EADC",
"Y.	c #EDDBC2",
"Z.	c #E5CEAA",
"`.	c #E4CCA7",
" +	c #BC9F71",
".+	c #F2EEE6",
"++	c #F2EADE",
"@+	c #EEEADE",
"#+	c #EEE6DA",
"$+	c #F2E2CE",
"%+	c #EEE2CE",
"&+	c #EAE2D2",
"*+	c #EEDECA",
"=+	c #EADAC2",
"-+	c #EADABE",
";+	c #EAD6BA",
">+	c #E6CEAE",
",+	c #E2CAA2",
"'+	c #BC9C6D",
")+	c #C6C2B6",
"!+	c #C8C1B7",
"~+	c #C7BFB4",
"{+	c #C6BBAB",
"]+	c #C6B9A9",
"^+	c #C6B8A3",
"/+	c #C5B7A0",
"(+	c #C4B49D",
"_+	c #C4B299",
":+	c #C3B296",
"<+	c #C3AE92",
"[+	c #C4AD8F",
"}+	c #C2AB8B",
"|+	c #C1AA86",
"1+	c #C0A583",
"2+	c #161612",
"3+	c #322A22",
"4+	c #322E2A",
"5+	c #2E2A26",
"6+	c #2E2A22",
"7+	c #322A1E",
"8+	c #2A2622",
"9+	c #0A0A06",
"              . + @ # $ % & * = - ; > , ' ) !                   ",
"              @ ~ ~ ~ ~ ~ ~ ~ ~ ~ { ] ^ / / ( _                 ",
"              : ~ < < < < < < < < [ < } | 1 ( 2 _               ",
"              3 ~ < < < < < < < < [ < < } | 4 ~ 2 _             ",
"              5 ~ < < < < < < < < [ < < < } 4 < ~ 2 _           ",
"              5 ~ < < < < < < < < [ < < < < 6 < < ~ 2 _         ",
"              7 ~ < < < < < < < < [ < < < < 8 9 < < ~ 2 _       ",
"              0 ~ < < < < < < < < [ < < < < a b 9 < < ~ 2 _     ",
"              c ~ < < < < < < < < [ < < < < d e f , g h i j _   ",
"              $ ~ < < < < < < < < [ < < < < k l m n o p q r _   ",
"              d ~ < < < < < < < < < < < < < < k s l t u o v _   ",
"              w ~ < < < < < < < < < < < < < k k x y z A u B _   ",
"              C ~ < < < < < < < < < < D ( E F G G H I J K L _   ",
"              C ~ < < < < < < < < < D (   ( M N N O P Q R S _   ",
"              & ~ < < < < < < < < < D (   ( T U V V W X Y (     ",
"              Z ~ < < < < < G < < D (       ( `  . ...Y +.      ",
"              * ~ < < < @.G ( #.< D (       ( $.%.&.Y *.    =._ ",
"              * ~ < < < G -.  ;.D (     e     ( $.Y >.    6 ,._ ",
"              = ~ < < '.(     ( D (     ).    ( Y (     * !.~._ ",
"              {.~ < G (         (     a ].^.    (     ).!./.(._ ",
"              ).~ G (     *     (     _.:.<.        ).!.[.[.}._ ",
"              |.~ (     = 1.*       {.2.3.2.{.    = !.Y 4.4.5._ ",
"              8 (     * 1.D a       {.6.7.8.6   * !.Y 9.!.0.a._ ",
"                    a 1.'.b.c.*   * 2.d.e.f.2.* !.g.9.h.i.0.j._ ",
"                  a 1.'.b.U k.*   l.2.e.m.n.2.o.g.9.h.p.q.r.s.t.",
"                * ~ u.v.w.D x.8.* 2.$.m.n.2.y.g.z.h.p.q.A.B.C.D.",
"                - ~ E.w.D F.%.e.* G.m.H.2.y.g.I.h.p.J.A.K.L.M.N.",
"                ^.~ O.P.F.%.Q.R.c.S.H.2.y.T.I.U.p.J.A.V.V.L.W.N.",
"                6 ~ w.F.X.1.R.c.m.H.Y.y.T.I.U.p.Z.`.V.V.V.L. +N.",
"                > ~ .+++@+#+$+%+&+*+=+-+;+0.0.>+r.B.,+L.L.L.'+t.",
"                -.)+!+~+{+]+^+/+(+_+:+<+[+}+|+1+s.C.M.W. +'+'+N.",
"                2+3+4+3+4+5+3+4+5+6+6+5+t.3+t.7+N.8+D.D.N.D.N.9+"};
