/* XPM */
static const char * const  find_xpm[] = {
"16 16 69 1",
" 	c None",
".	c #272727",
"+	c #3F3F3F",
"@	c #0E0E0E",
"#	c #404041",
"$	c #3F3F40",
"%	c #020202",
"&	c #CED8D9",
"*	c #D7E5E8",
"=	c #C1D4D6",
"-	c #000000",
";	c #7F8281",
">	c #E3F3F4",
",	c #DCF2F3",
"'	c #C5E9EE",
")	c #A8DEE5",
"!	c #ADE4E8",
"~	c #808382",
"{	c #010101",
"]	c #E3F4F3",
"^	c #EAFBFA",
"/	c #DEF5F7",
"(	c #BEEDF1",
"_	c #90D9DF",
":	c #6DC4CC",
"<	c #BAECEF",
"[	c #101010",
"}	c #B6D9DD",
"|	c #D5F2F4",
"1	c #D0F1F5",
"2	c #AFE9F0",
"3	c #8FDFE8",
"4	c #71C6CE",
"5	c #79CAD4",
"6	c #B9DBE0",
"7	c #0B0B0B",
"8	c #D7E5E6",
"9	c #C3EAEC",
"0	c #B0EAEF",
"a	c #95E1EA",
"b	c #76D7E3",
"c	c #60C1CD",
"d	c #85CCD2",
"e	c #CDECF0",
"f	c #090909",
"g	c #A8D1D5",
"h	c #ADDDE2",
"i	c #8BD7E0",
"j	c #8ADBE5",
"k	c #78D8E3",
"l	c #53C9D4",
"m	c #43B2BC",
"n	c #7CC9CD",
"o	c #AED6DB",
"p	c #76CBD5",
"q	c #6FC4CE",
"r	c #68C6D1",
"s	c #3EAAB3",
"t	c #90D5DB",
"u	c #7AC4CB",
"v	c #89C8D0",
"w	c #00FFFF",
"x	c #B9DADE",
"y	c #CAEAED",
"z	c #ADD6DA",
"A	c #070707",
"B	c #00C0C0",
"C	c #707071",
"D	c #C3C3C3",
"    .+@       # ",
"  $%&*=-$       ",
" $;>,')!;$   ~~ ",
" {]^/(_:<-  ~###",
"[}|/1234567 ~##.",
".89(0abcdef  .. ",
"7ghijklmno-     ",
" -(pqrms(-      ",
" $;(tuv(;-w     ",
"  $-xyz-$w--    ",
"    {A{ B-CD-   ",
"  #      -#CD-  ",
"    #     -#CD- ",
" ~~        -#CD-",
"~### #      -#C-",
"~##.         -- "};
