/* XPM */
static const char * const  forward_xpm[] = {
"16 16 50 1",
" 	c None",
".	c #0C3C54",
"+	c #105772",
"@	c #0E7793",
"#	c #245066",
"$	c #C4F0F8",
"%	c #A6E3EE",
"&	c #9FD2E2",
"*	c #E0F4FC",
"=	c #F0F5FD",
"-	c #BEE4F0",
";	c #52CADB",
">	c #14BED0",
",	c #ACEFF7",
"'	c #5CCCDC",
")	c #34C6D7",
"!	c #27C6D6",
"~	c #2FC0D4",
"{	c #12B9CE",
"]	c #0CB3CA",
"^	c #11B9CE",
"/	c #CDEAF4",
"(	c #18CFD7",
"_	c #3DDBDE",
":	c #0CB0C8",
"<	c #0CB3C9",
"[	c #0E98B4",
"}	c #13475C",
"|	c #04070D",
"1	c #174961",
"2	c #62ABC0",
"3	c #289EB3",
"4	c #24A3B4",
"5	c #1CA5B6",
"6	c #0FABC0",
"7	c #0BB7CC",
"8	c #41E8E4",
"9	c #0B5066",
"0	c #06121B",
"a	c #0C384E",
"b	c #071921",
"c	c #06171F",
"d	c #061720",
"e	c #05181F",
"f	c #0C6278",
"g	c #0E586E",
"h	c #050D14",
"i	c #104D63",
"j	c #0A2F41",
"k	c #030003",
"                ",
"       .        ",
"       +.       ",
"       +@.      ",
"       #$@.     ",
"  ++++##%$@.    ",
"  +&*=*-;>,@.   ",
"  +=')!~{]^,@.  ",
"  #/(__(:<_[}|  ",
"  12345678[90   ",
"  abcdef_[gh    ",
"       i[}h     ",
"       }}0      ",
"       j|       ",
"       k        ",
"                "};
