/* XPM */
static const char * const  gohome_xpm[] = {
"16 16 99 2",
"  	c None",
". 	c #433331",
"+ 	c #270201",
"@ 	c #282828",
"# 	c #000000",
"$ 	c #7F4842",
"% 	c #EE9D93",
"& 	c #D8695E",
"* 	c #5D150F",
"= 	c #753C36",
"- 	c #E88379",
"; 	c #DA574C",
"> 	c #CD4135",
", 	c #480705",
"' 	c #312928",
") 	c #5E332E",
"! 	c #C35B50",
"~ 	c #863932",
"{ 	c #A4261A",
"] 	c #470202",
"^ 	c #6C423D",
"/ 	c #B7392E",
"( 	c #775856",
"_ 	c #AAAAAA",
": 	c #775755",
"< 	c #94180E",
"[ 	c #420101",
"} 	c #753B35",
"| 	c #775F5D",
"1 	c #BDBDBD",
"2 	c #E8E8E8",
"3 	c #775E5C",
"4 	c #92160C",
"5 	c #400201",
"6 	c #755654",
"7 	c #F0F0F0",
"8 	c #F9F9F9",
"9 	c #745452",
"0 	c #8F1109",
"a 	c #6F2C25",
"b 	c #AC362E",
"c 	c #705352",
"d 	c #B8B8B8",
"e 	c #F8F8F8",
"f 	c #F7F7F7",
"g 	c #BABABA",
"h 	c #725654",
"i 	c #8B0F07",
"j 	c #370100",
"k 	c #4D0603",
"l 	c #2D1F1F",
"m 	c #9D9D9D",
"n 	c #DDDDDD",
"o 	c #D0BBB2",
"p 	c #A97656",
"q 	c #722909",
"r 	c #DBDBDB",
"s 	c #8B8B8B",
"t 	c #39302F",
"u 	c #3F0602",
"v 	c #2A2929",
"w 	c #A2A2A2",
"x 	c #DFDFDF",
"y 	c #AA7970",
"z 	c #E3C9B5",
"A 	c #D9B9A1",
"B 	c #E2E2E2",
"C 	c #979797",
"D 	c #383838",
"E 	c #151515",
"F 	c #A9A9A9",
"G 	c #E1E1E1",
"H 	c #C8670C",
"I 	c #752701",
"J 	c #E3E1E1",
"K 	c #A5A5A5",
"L 	c #3A3A3A",
"M 	c #101010",
"N 	c #3B3B3B",
"O 	c #925B4C",
"P 	c #D1925A",
"Q 	c #B85808",
"R 	c #C4722C",
"S 	c #0F0F0F",
"T 	c #9F9F9F",
"U 	c #D3D3D3",
"V 	c #D7D7D7",
"W 	c #7D3A23",
"X 	c #A64C0B",
"Y 	c #A74C08",
"Z 	c #55200C",
"` 	c #D5D3D3",
" .	c #353535",
"..	c #343232",
"+.	c #1F0E08",
"@.	c #271002",
"#.	c #200C02",
"$.	c #353130",
"%.	c #3C1511",
"              . +               ",
"      @ #   $ % & *             ",
"      @ # = % - ; > ,           ",
"      ' ) % ! ~ ~ { > ]         ",
"      ^ % / ( _ _ : < > [       ",
"    } % / | 1 2 2 1 3 4 > 5     ",
"  $ % / 6 1 7 8 8 7 1 9 0 > [   ",
"a % b c d 7 e e e f 7 g h i > j ",
"  k l m n 8 o p q o 8 r s t u   ",
"    v w x 8 y z A q 8 B C D     ",
"    E F G 8 y A H I 8 J K L     ",
"    M F G 8 y A H I 8 J F N     ",
"    M F G 8 O P Q I 8 J F N     ",
"    M F G 8 O R Q I 8 J F N     ",
"    S T U V W X Y Z V ` T L     ",
"      @  ...+.@.@.#.$. .@ %.    "};
