/* XPM */
static const char * const images_display_xpm[] = {
/* columns rows colors chars-per-pixel */
"16 16 30 1",
"  c #000000",
". c #003800",
"X c #230000",
"o c gray19",
"O c #004040",
"+ c #400000",
"@ c #400518",
"# c #404000",
"$ c #585858",
"% c blue",
"& c #008000",
"* c #00c000",
"= c green",
"- c #40d974",
"; c #800000",
": c #c00000",
"> c #c05800",
", c #ff8000",
"< c #ffa858",
"1 c #808080",
"2 c #a0a0a0",
"3 c #8080ff",
"4 c #ffdca8",
"5 c #c3c3c3",
"6 c gainsboro",
"7 c #c0c0ff",
"8 c #c0ffc0",
"9 c #c0ffff",
"0 c white",
"q c None",
/* pixels */
"qq qqq  qq qqqqq",
"q#>o+$73O2*oqqqq",
" >0>:703$*=&#oqq",
" >4>;03%O80*#oqq",
" >,>;73%$**&$oqq",
" ,>+23%O22*$1oqq",
" 5>:53%122*1$oqq",
" 6,+631221&$1oqq",
" 5>5615552$#ooqq",
" <>6665552$0* qq",
" $$22522$$o8*  q",
"q $1111$o080*88 ",
"qq       ****** ",
"qqqqqqqqq  *&  q",
"qqqqqqqqqq 8&+qq",
"qqqqqqqqqqq  qqq"
};
