/* XPM */
static const char * const  print_xpm[] = {
"16 16 10 1",
" 	c None",
".	c #000000",
"+	c #C0C0C0",
"@	c #585858",
"#	c #808080",
"$	c #FFFFFF",
"%	c #808000",
"&	c #FFFF00",
"*	c #A0A0A4",
"=	c #00FF00",
"                ",
"      ...       ",
"     .+++...    ",
"    .@@@++++... ",
"   .#$$#@@@++++.",
"  .#$$$$.@##%%+.",
" .#$$$$.@##$&+*.",
".$+++$.@##$=+$@.",
".+$$$+++#$++$@@.",
".++++$$$+++$@@@.",
".+***+++$$$@@@@.",
".+*$$***++@@@@. ",
"..+++$$*++@@@.  ",
"  ...++*++@@.   ",
"     ...++@.    ",
"        ...     "};
