/* XPM */
static const char * const  stop_xpm[] = {
"16 16 103 2",
"  	c None",
". 	c #642823",
"+ 	c #682822",
"@ 	c #612520",
"# 	c #60241F",
"$ 	c #5F231E",
"% 	c #5E221D",
"& 	c #3E1613",
"* 	c #935653",
"= 	c #FEDED8",
"- 	c #FFD2CB",
"; 	c #FFD0CA",
"> 	c #EDC0BB",
", 	c #E8BBB6",
"' 	c #CD9891",
") 	c #843730",
"! 	c #150100",
"~ 	c #935754",
"{ 	c #F7D9D7",
"] 	c #EA9893",
"^ 	c #E49691",
"/ 	c #E08882",
"( 	c #D6766F",
"_ 	c #CD675E",
": 	c #C85E55",
"< 	c #B21D17",
"[ 	c #750300",
"} 	c #8B4946",
"| 	c #FBDDDA",
"1 	c #E9AEAB",
"2 	c #E38880",
"3 	c #D8746E",
"4 	c #DB7972",
"5 	c #D76F67",
"6 	c #CE625A",
"7 	c #D37A72",
"8 	c #BC1F12",
"9 	c #B10601",
"0 	c #6E0300",
"a 	c #0C0000",
"b 	c #6A2D28",
"c 	c #FAE1DC",
"d 	c #ED9B95",
"e 	c #F8EAEA",
"f 	c #F7DFDD",
"g 	c #DA8B86",
"h 	c #F7F7F6",
"i 	c #E8C2BD",
"j 	c #B80701",
"k 	c #9E0400",
"l 	c #4F0200",
"m 	c #000000",
"n 	c #692923",
"o 	c #FFD6CF",
"p 	c #E49692",
"q 	c #FFFFFF",
"r 	c #FBFBFA",
"s 	c #DB8C88",
"t 	c #BD2717",
"u 	c #A40400",
"v 	c #550200",
"w 	c #632620",
"x 	c #FFD1CB",
"y 	c #DC8680",
"z 	c #DD827D",
"A 	c #FEFEFE",
"B 	c #F9F9F8",
"C 	c #C3473C",
"D 	c #560200",
"E 	c #EFC2BD",
"F 	c #D57169",
"G 	c #D46D66",
"H 	c #D9746E",
"I 	c #C85A50",
"J 	c #EDBFBA",
"K 	c #D06960",
"L 	c #E8C8C4",
"M 	c #DBACA6",
"N 	c #C6554B",
"O 	c #D47A71",
"P 	c #C65246",
"Q 	c #E5B8B6",
"R 	c #B70601",
"S 	c #A20400",
"T 	c #540200",
"U 	c #500200",
"V 	c #B1160F",
"W 	c #BB170C",
"X 	c #E6BAB8",
"Y 	c #C7423E",
"Z 	c #AF0501",
"` 	c #7D0200",
" .	c #360100",
"..	c #7F0300",
"+.	c #380100",
"@.	c #930400",
"#.	c #980400",
"$.	c #950400",
"%.	c #920400",
"&.	c #8F0400",
"*.	c #4B0200",
"=.	c #340100",
"-.	c #370100",
"                                ",
"          . + @ # $ % &         ",
"        * = - ; > , ' ) !       ",
"      ~ { ] ^ / ( _ : < [ !     ",
"    } | 1 2 3 4 5 6 7 8 9 0 a   ",
"  b c d 2 e f 3 3 g h i j k l m ",
"  n o p 3 f q f 3 r h s t u v m ",
"  w x y z 3 f q A B s C t u D m ",
"  # E F G H 3 A r f I C t u D m ",
"  $ J K 6 s r B f q L C t u D m ",
"  % M N O h h s P L q Q R S T m ",
"    U V W X s C C C Q Y Z `  .  ",
"      U 9 j t t t t R Z ..+.    ",
"        U @.#.$.%.&.&.` +.      ",
"          *.=.+.+.-.+.+.        ",
"                                "};
