/* XPM */
static const char * const  unlock_xpm[] = {
"16 16 17 1",
" 	c None",
".	c #FFFFFF",
"+	c #FFFFFF",
"@	c #FFFFFF",
"#	c #585858",
"$	c #303030",
"%	c #A0A0A0",
"&	c #000000",
"*	c #C3C3C3",
"=	c #808000",
"-	c #C0C000",
";	c #DCDCDC",
">	c #FFFFFF",
",	c #FFDCA8",
"'	c #808080",
")	c #404000",
"!	c #400000",
"         ####   ",
"        #;%%%$  ",
"       #*#$$#%# ",
"       #%$  #'$ ",
"       #'$  #'$ ",
"       ##&  ##& ",
" #$$$&))$$$  $  ",
"#==%**;*-=#&    ",
"#=,,--=-==#&    ",
"$=@,---===#&    ",
"$*@;;**%%%#&    ",
"$*@;;***%%#&    ",
"&%@;;**%%%#&    ",
"&*@;;**%%=#&    ",
"&=,,--=-==#&    ",
" &$))$$$!$&     "};
