/* XPM */
static const char * const  viewmag_xpm[] = {
"18 18 150 2",
"  	c None",
". 	c #5F5F60",
"+ 	c #515253",
"@ 	c #3E3E3F",
"# 	c #545556",
"$ 	c #5C5D5E",
"% 	c #5F5C5D",
"& 	c #6B6D6E",
"* 	c #ABB1B0",
"= 	c #D0DCDD",
"- 	c #D8E8EB",
"; 	c #D1DFE2",
"> 	c #B0B7BA",
", 	c #555556",
"' 	c #504F4E",
") 	c #525152",
"! 	c #8C8F90",
"~ 	c #DCEAEB",
"{ 	c #FEFFFF",
"] 	c #E2FBFF",
"^ 	c #CFF3FC",
"/ 	c #C0EDF9",
"( 	c #C2F1FB",
"_ 	c #DAF3F6",
": 	c #9A9999",
"< 	c #454545",
"[ 	c #626467",
"} 	c #DAE7E9",
"| 	c #FFFFFF",
"1 	c #FAFEFE",
"2 	c #CEEEF4",
"3 	c #A3DBE8",
"4 	c #8BCEDC",
"5 	c #98D8E4",
"6 	c #CEE9ED",
"7 	c #6A6968",
"8 	c #686969",
"9 	c #BCC3C3",
"0 	c #E4F7F9",
"a 	c #E2F4F9",
"b 	c #E3F6F8",
"c 	c #BAE5EE",
"d 	c #A1DBE8",
"e 	c #89D0DF",
"f 	c #65B7C8",
"g 	c #94D8E8",
"h 	c #B2C9CC",
"i 	c #787675",
"j 	c #DBE3E5",
"k 	c #DCF4FB",
"l 	c #C3E6F1",
"m 	c #DCF3F7",
"n 	c #B5E3EE",
"o 	c #9FDBE8",
"p 	c #89D3E4",
"q 	c #6BC3DA",
"r 	c #449BAE",
"s 	c #7EC7D4",
"t 	c #C7EAF2",
"u 	c #D1DCDC",
"v 	c #D2EFF4",
"w 	c #AEDFE7",
"x 	c #A5DDEA",
"y 	c #9CDBE8",
"z 	c #6CCADE",
"A 	c #51A9BC",
"B 	c #398491",
"C 	c #75C7D4",
"D 	c #C1E1E7",
"E 	c #353635",
"F 	c #666666",
"G 	c #ADB2B2",
"H 	c #C9ECF3",
"I 	c #92D3E0",
"J 	c #87CDDB",
"K 	c #80C9D9",
"L 	c #68C4D8",
"M 	c #48ADC0",
"N 	c #4398A6",
"O 	c #A7E0EC",
"P 	c #9BA6A9",
"Q 	c #BACBCC",
"R 	c #B3EAF7",
"S 	c #71BECB",
"T 	c #52ABBC",
"U 	c #3F99A8",
"V 	c #378FA1",
"W 	c #92D9EC",
"X 	c #DEF0F1",
"Y 	c #464648",
"Z 	c #212328",
"` 	c #7D7D7C",
" .	c #64615F",
"..	c #C5CDCE",
"+.	c #BFE6F0",
"@.	c #A3DDE8",
"#.	c #93D8E4",
"$.	c #94D8E7",
"%.	c #C4EFF9",
"&.	c #D1DBDD",
"*.	c #515050",
"=.	c #10131B",
"-.	c #A39243",
";.	c #636262",
">.	c #6B7D7F",
",.	c #A5B6BB",
"'.	c #B8CBCD",
").	c #ADBABD",
"!.	c #768C8F",
"~.	c #494E52",
"{.	c #1A1910",
"].	c #BDA44C",
"^.	c #FFFFF3",
"/.	c #635920",
"(.	c #3B3A3A",
"_.	c #6B6969",
":.	c #5E5B5C",
"<.	c #595657",
"[.	c #5B5D5E",
"}.	c #292B26",
"|.	c #A3965A",
"1.	c #B2B2B3",
"2.	c #252525",
"3.	c #424243",
"4.	c #64581B",
"5.	c #504C2D",
"6.	c #393E44",
"7.	c #A8A8AA",
"8.	c #C3C3C3",
"9.	c #363535",
"0.	c #2F2F32",
"a.	c #3A3F40",
"b.	c #979698",
"c.	c #B1B1B1",
"d.	c #4A494B",
"e.	c #000000",
"f.	c #323133",
"g.	c #434748",
"h.	c #99999B",
"i.	c #A1A1A2",
"j.	c #3D3D3E",
"k.	c #282729",
"l.	c #212222",
"m.	c #4D5152",
"n.	c #535455",
"o.	c #0B0B0B",
"p.	c #020202",
"q.	c #121313",
"r.	c #242527",
"s.	c #2B2B2B",
"        . + @ # $                   ",
"    % & * = - ; > , '               ",
"  ) ! ~ { ] ^ / ( _ : <             ",
"  [ } | | 1 2 3 4 5 6 7             ",
"8 9 0 a | b c d e f g h i           ",
"@ j k l m n o p q r s t <           ",
"@ u v w x y p z A B C D E           ",
"F G H I J K L M B N O P <           ",
"  @ Q R S T U B V W X Y Z           ",
"  `  ...+.@.#.$.%.&.*.=.-.          ",
"    ;.@ >.,.'.).!.~.{.].^./.        ",
"      (._.:.@ <.[.}./.|.1.| @       ",
"              2.3.  4.5.6.7.8.@     ",
"                      9.0.a.b.c.d.  ",
"                        e.f.g.h.i.j.",
"                          k.l.m.n.o.",
"                            p.q.r.s.",
"                                    "};
